PathFileType	4	(X/Y/Z)	C:/Users/beibeiliu/ov580/test_trc/User3\sequence.15_training_dense_right.trc
DataRate	CameraRate	NumFrames	NumMarkers	Units	OrigDataRate	OrigDataStartFrame	OrigNumFrames
120	120	16	19	mm	120	33	64
Frame#	Time	ThumbCMC			ThumbMCP			ThumbIP			ThumbTip			IndexMCP			IndexPIP			IndexTip			MiddleMCP			MiddlePIP			MiddleTip			RingMCP			RingPIP			RingTip			PinkyMCP			PinkyPIP			PinkyTip			BackHand1			BackHand2			BackHand3	
		X0	Y0	Z0	X1	Y1	Z1	X2	Y2	Z2	X3	Y3	Z3	X4	Y4	Z4	X5	Y5	Z5	X6	Y6	Z6	X7	Y7	Z7	X8	Y8	Z8	X9	Y9	Z9	X10	Y10	Z10	X11	Y11	Z11	X12	Y12	Z12	X13	Y13	Z13	X14	Y14	Z14	X15	Y15	Z15	X16	Y16	Z16	X17	Y17	Z17	X18	Y18	Z18	
32	0.266667	159.109	-46.81	-8.01855	136.317	-26.6318	-40.6133	114.021	-19.6681	-61.7222	87.6078	-25.178	-66.4346	144.943	-87.8577	-71.8401	141.877	-79.2482	-105.037	134.46	-66.3978	-122.722	126.013	-100.574	-69.8363	123.473	-103.004	-101.866	113.84	-99.2961	-132.192	104.416	-91.7669	-63.3799	96.4274	-84.7738	-90.3186	85.8263	-61.9889	-109.531	87.851	-72.5753	-47.7613	84.5419	-44.9079	-56.7374	104.11	-27.8429	-38.1198	114.888	-96.8951	-9.62573	117.647	-90.914	18.4844	147.684	-89.8343	-5.74346	
33	0.275	170.037	-53.8168	-6.43141	151.421	-38.0018	-38.503	129.232	-37.3129	-62.321	104.373	-47.9751	-74.4852	173.822	-102.363	-69.0795	169.798	-99.5599	-95.6498	159.63	-89.9383	-118.156	151.684	-118.42	-61.7433	154.742	-125.113	-92.7433	152.048	-124.136	-123.436	129.381	-113.465	-61.5532	122.441	-110.331	-87.1031	111.869	-92.7778	-106.553	109.237	-94.057	-49.878	104.755	-69.678	-61.7969	115.489	-43.4128	-44.1925	138.566	-110.158	-4.08968	138.778	-100.019	21.3131	171.352	-93.0332	4.20088	
34	0.283333	180.734	-53.701	-7.23178	162.055	-45.1623	-43.1656	143.806	-51.462	-62.4744	122.462	-65.2575	-78.7388	196.599	-103.639	-60.7221	199.737	-100.985	-93.0418	192.128	-96.7865	-113.475	189.384	-122.64	-58.8869	190.871	-130.067	-84.5915	188.664	-132.06	-119.601	162.849	-121.894	-55.0194	156.038	-123.663	-80.9483	146.3	-107.019	-108.685	136.538	-108.596	-48.1882	127.434	-88.0218	-64.0059	130.93	-60.9238	-54.3305	160.205	-110.838	0.907416	157.736	-98.4482	27.2252	189.779	-90.4798	6.82344	
35	0.291667	187.618	-43.7228	-4.3925	171.504	-44.8507	-45.9032	156.542	-54.6193	-69.4287	142.721	-75.5357	-77.2345	225.384	-89.0275	-59.2358	222.55	-90.5991	-83.9285	220.896	-86.1901	-109.28	218.851	-113.967	-53.8287	225.429	-120.644	-79.9834	225.568	-125.1	-111.186	191.042	-119.428	-49.9968	191.939	-120.246	-81.7284	175.789	-110.914	-107.356	166.026	-112.553	-49.5622	155.259	-99.5077	-65.7514	144.113	-71.1437	-60.4594	187.356	-105.02	3.62079	174.342	-92.9491	30.6854	203.572	-79.701	11.7731	
36	0.3	187.075	-33.537	-8.25735	172.817	-37.6733	-43.676	166.436	-56.9428	-73.438	159.063	-77.8752	-81.7349	237.815	-66.7429	-54.1374	241.95	-63.3818	-81.5957	235.83	-65.4474	-105.719	242.215	-85.7977	-48.9511	251.417	-92.6265	-73.6878	258.915	-93.8628	-108.325	218.246	-100.637	-47.7758	219.049	-103.301	-79.8915	204.768	-97.4166	-105.2	189.423	-107.101	-44.9063	173.408	-95.08	-69.452	158.443	-77.442	-68.984	203.018	-90.0128	3.82169	190.826	-83.4538	27.0205	209.623	-58.833	15.1381	
37	0.308333	171.567	-23.4659	-5.69167	163.286	-29.3341	-45.8023	166.607	-49.4907	-75.892	169.68	-72.5771	-84.2707	233.462	-31.3563	-52.3697	238.365	-30.597	-80.1747	233.661	-26.6554	-107.838	246.997	-50.7534	-47.8483	259.453	-52.5648	-73.8911	265.662	-51.7135	-107.331	231.984	-70.9177	-47.735	233.955	-71.2164	-80.5641	221.163	-70.1205	-104.253	207.061	-89.3705	-48.4865	189.488	-84.4538	-70.633	165.106	-72.5818	-71.658	212.515	-69.9693	5.19305	197.75	-71.7508	26.7192	207.766	-37.6544	10.4376	
38	0.316667	150.84	-17.102	-6.72918	147.31	-24.1539	-46.721	158.984	-38.4254	-76.55	169.672	-56.7253	-86.3164	210.168	4.40911	-58.2849	211.024	9.47956	-85.7306	204.595	5.17779	-112.076	230.334	-10.0438	-50.069	239.709	0.71304	-75.8787	244.797	6.12442	-110.658	225.99	-29.7094	-54.7307	230.148	-31.5371	-80.3649	216.311	-34.7178	-107.96	212.628	-58.7221	-50.2659	199.17	-64.6387	-72.2059	171.808	-65.0853	-76.3444	207.917	-41.3763	0.131738	195.839	-47.3946	22.6399	190.917	-15.3961	9.56012	
39	0.325	126.288	-16.7792	-10.5086	129.852	-22.6684	-51.4501	144.372	-30.9106	-76.904	159.553	-43.2268	-88.6013	168.935	25.1154	-57.7963	168.596	32.5741	-87.7744	162.108	26.1527	-115.717	194.821	24.1526	-56.8854	202.692	34.5215	-84.4121	204.197	39.1597	-117.123	203.712	-1.05335	-62.0894	203.023	1.72712	-89.0749	191.387	-8.78956	-115.823	198.68	-28.5564	-58.056	187.597	-41.468	-80.949	163.147	-56.3367	-82.4341	194.598	-18.8877	-7.08356	185.274	-32.7818	18.4974	164.865	-0.158553	4.53732	
40	0.333333	110.682	-23.1154	-15.4348	110.12	-32.0604	-52.0932	122.984	-36.9867	-80.8831	145.874	-41.6958	-91.7562	135.54	26.8331	-65.3944	134.097	29.9556	-95.5985	126.671	19.4018	-124.513	164.546	28.4191	-64.2305	163.279	41.3357	-89.5405	162.692	47.2023	-124.891	176.368	6.92748	-67.0015	173.163	11.4978	-96.8589	167.119	-1.86442	-122.43	182.688	-20.3049	-67.1843	171.475	-35.5848	-88.1244	154.373	-57.0048	-87.828	172.811	-6.58508	-15.6764	172.002	-20.1915	11.3842	144.179	-1.29334	-2.36496	
41	0.341667	100.463	-36.5543	-15.9135	95.085	-51.2152	-51.0428	111.384	-55.1784	-80.2757	134.268	-59.7723	-94.3205	110.384	10.6641	-74.9784	106.258	9.33575	-105.35	98.74	-2.53316	-128.098	137.823	18.4227	-77.9222	138.612	25.2405	-104.945	134.846	25.0189	-139.332	154.585	-1.12182	-79.6168	149.717	-1.09767	-104.784	143.43	-22.7565	-131.243	166.301	-28.4276	-72.0683	151.695	-47.2511	-91.8521	143.548	-70.7044	-87.5387	158.628	-10.2253	-21.7697	159.085	-21.3353	0.993486	125.153	-6.6339	-8.1259	
42	0.35	93.0156	-51.8034	-15.8936	88.7553	-74.0695	-45.3018	101.159	-85.1682	-76.0122	124.912	-89.6962	-90.1628	98.2629	-18.8241	-86.177	91.4323	-25.0865	-110.017	84.3275	-40.7956	-131.331	124.124	-9.99587	-89.6627	120.885	-8.37348	-114.148	113.696	-13.7053	-147.505	136.904	-26.1232	-84.3261	134.756	-32.8344	-113.289	127.119	-52.9509	-130.919	154.868	-50.7608	-75.7266	145.924	-71.946	-90.9896	132.823	-97.1069	-80.0618	146.51	-23.3089	-28.8895	150.528	-28.8009	-4.36279	114.356	-19.028	-17.8042	
43	0.358333	84.7072	-62.5011	-12.2744	84.9052	-88.652	-38.408	94.8477	-105.231	-63.5007	115.334	-112.205	-76.2417	92.0244	-40.065	-83.2471	78.8028	-51.9657	-112.961	73.3867	-68.3198	-128.583	114.792	-34.2391	-88.1369	107.237	-35.0152	-118.774	101.537	-45.8124	-147.16	131.436	-47.5505	-84.3002	125.891	-61.4113	-113.569	123.237	-85.0994	-127.073	147.101	-71.3278	-74.8969	135.178	-93.8265	-83.1007	125.567	-116.304	-68.5995	139.63	-35.7647	-31.1071	144.149	-35.4401	-5.8049	112.075	-30.3656	-16.7779	
44	0.366667	82.7485	-70.158	-9.28417	77.4949	-99.1594	-27.9157	86.7423	-120.137	-50.0123	107.14	-131.016	-63.2852	82.1736	-57.326	-84.6422	71.8597	-70.3588	-104.88	68.5421	-92.3615	-122.801	106.617	-52.8435	-89.2012	103.338	-60.0363	-117.679	94.1136	-74.7522	-144.634	124.282	-68.8094	-84.4655	118.128	-84.6857	-108.129	113.804	-109.579	-118.181	135.638	-87.6988	-65.7909	127.254	-114.19	-71.8904	113.242	-129.646	-56.4002	134.978	-46.6595	-34.2879	139.149	-45.2837	-0.980154	104.4	-38.1154	-15.5886	
45	0.375	76.7688	-67.9371	-4.54165	67.8393	-100.848	-22.5928	72.5716	-125.955	-41.8585	94.2669	-140.83	-53.563	80.2481	-63.8406	-77.9982	64.3799	-79.104	-100.026	55.6424	-102.078	-116.029	100.951	-62.5093	-86.2354	94.3892	-71.3917	-111.887	86.7292	-92.3834	-138.899	116.049	-78.773	-76.0134	108.79	-98.3994	-101.091	99.9411	-123.205	-110.594	129.341	-100.977	-62.0812	116.022	-120.344	-63.8966	103.136	-140.606	-44.2586	128.461	-53.8249	-30.7318	139.177	-47.7719	-0.81745	99.5634	-38.7939	-18.9281	
46	0.383333	70.2666	-55.4088	-3.35084	57.2303	-87.1969	-17.1652	56.4375	-117.867	-35.0836	72.6912	-133.159	-40.3053	73.2344	-60.2132	-77.5531	61.2628	-76.7973	-98.2889	46.6028	-99.0849	-112.278	98.8162	-67.0501	-84.573	88.8392	-77.6816	-111.835	76.4476	-98.1731	-133.788	108.114	-82.9715	-73.6699	95.6528	-102.947	-96.0354	79.8454	-126.761	-101.532	116.761	-108.102	-57.5443	96.1973	-127.892	-53.0253	79.7873	-131.179	-34.6624	129.617	-62.2827	-33.6684	137.955	-52.1207	-6.12121	105.922	-37.1315	-20.4451	
47	0.391667	76.6041	-35.9513	-3.34593	45.8962	-62.2816	-16.1335	36.0002	-90.1607	-28.4149	50.2798	-113.72	-34.0778	73.7864	-48.879	-77.8825	57.2725	-65.3377	-99.1558	35.5992	-75.2141	-109.622	95.6365	-69.2955	-85.2854	80.6388	-78.9821	-112.045	59.6104	-93.3749	-132.246	98.18	-84.3201	-70.7798	78.6447	-103.282	-91.0461	55.083	-116.053	-92.2849	95.051	-105.186	-50.2911	69.8811	-112.572	-47.3146	53.1422	-110.146	-25.8358	127.376	-64.8973	-30.2301	136.014	-53.7426	-2.68477	112.567	-31.3509	-20.086	
